<svg version="1.1" xmlns="http://www.w3.org/2000/svg" xmlns:xlink="http://www.w3.org/1999/xlink" width="48" height="48"><defs><linearGradient x1="12.14725" y1="7.70247" x2="71.2385" y2="75.68328" gradientUnits="userSpaceOnUse" id="color-1"><stop offset="0" stop-color="#000000" stop-opacity="0"></stop><stop offset="1" stop-color="#000000" stop-opacity="0"></stop></linearGradient><filter id="dropshadow-base"><feColorMatrix type="matrix" values="0 0 0 0 0  0 0 0 0 0  0 0 0 0 0  0 0 0 .8 0"></feColorMatrix> <feOffset dx="0" dy="1"></feOffset> <feGaussianBlur stdDeviation="1"></feGaussianBlur> <feComposite in="SourceGraphic"></feComposite></filter><filter id="dropshadow-banner" x="-10%" y="-10%" width="120%" height="130%"><feColorMatrix type="matrix" values="0 0 0 0 0  0 0 0 0 0  0 0 0 0 0  0 0 0 .4 0"></feColorMatrix> <feOffset dx="0" dy="1"></feOffset> <feGaussianBlur stdDeviation="0.5"></feGaussianBlur> <feComposite in="SourceGraphic"></feComposite></filter></defs><g fill="none" fill-rule="nonzero" stroke="none" stroke-width="none" stroke-linecap="butt" stroke-linejoin="miter" stroke-miterlimit="10" stroke-dasharray="" stroke-dashoffset="0" font-family="none" font-weight="none" font-size="none" text-anchor="none" style="mix-blend-mode: normal"><path d="M2,24c0,-12.15026 9.84974,-22 22,-22c12.15026,0 22,9.84974 22,22c0,12.15026 -9.84974,22 -22,22c-12.15026,0 -22,-9.84974 -22,-22z" id="base 1 9" fill="#ffffee" stroke-width="1"></path><path d="M24,7.70247l10.00075,10.00075l0.01481,-0.01481v-0.00002l11.39436,11.39436c-1.90818,8.0682 -8.25897,14.41899 -16.32718,16.32718l-15.09834,-15.09834c-1.15564,-1.82977 -1.83717,-3.9855 -1.83717,-6.31159c0,-6.54864 5.30411,-11.85275 11.85275,-11.85275z" fill="url(#color-1)" stroke-width="1"></path><path d="M24,15.11044v4.44478l5.92637,-5.92637l-5.92637,-5.92637v4.44478c-6.54864,0 -11.85275,5.30411 -11.85275,11.85275c0,2.3261 0.68153,4.48182 1.83718,6.31159l2.16313,-2.16313c-0.65931,-1.23713 -1.03712,-2.64464 -1.03712,-4.14846c0,-4.91148 3.97808,-8.88956 8.88956,-8.88956zM34.01557,17.68841l-2.16313,2.16313c0.65931,1.23713 1.03712,2.64464 1.03712,4.14846c0,4.91148 -3.97808,8.88956 -8.88956,8.88956v-4.44478l-5.92637,5.92637l5.92637,5.92637v-4.44478c6.54864,0 11.85275,-5.30411 11.85275,-11.85275c0,-2.3261 -0.68153,-4.48182 -1.83718,-6.31159z" fill="none" stroke-width="0"></path><path d="M15.11044,24c0,1.50382 0.37781,2.91133 1.03712,4.14846l-2.16313,2.16313c-1.15564,-1.82977 -1.83718,-3.98549 -1.83718,-6.31159c0,-6.54864 5.30411,-11.85275 11.85275,-11.85275v-4.44478l5.92637,5.92637l-5.92637,5.92637v-4.44478c-4.91148,0 -8.88956,3.97808 -8.88956,8.88956zM35.85275,24c0,6.54864 -5.30411,11.85275 -11.85275,11.85275v4.44478l-5.92637,-5.92637l5.92637,-5.92637v4.44478c4.91148,0 8.88956,-3.97808 8.88956,-8.88956c0,-1.50382 -0.37781,-2.91133 -1.03712,-4.14846l2.16313,-2.16313c1.15564,1.82977 1.83718,3.98549 1.83718,6.31159z" fill="#880000" stroke-width="0"></path><path d="M2,24c0,-12.15026 9.84974,-22 22,-22c12.15026,0 22,9.84974 22,22c0,12.15026 -9.84974,22 -22,22c-12.15026,0 -22,-9.84974 -22,-22z" id="base 1 5 1" fill="none" stroke-width="1"></path><path d="M2,24c0,-12.15026 9.84974,-22 22,-22c12.15026,0 22,9.84974 22,22c0,12.15026 -9.84974,22 -22,22c-12.15026,0 -22,-9.84974 -22,-22z" id="base 1 1 1" fill="none" stroke-width="1"></path><g fill="#000000" stroke-width="1" font-family="Roboto, sans-serif" font-weight="400" font-size="14" text-anchor="start"></g><rect x="2" y="2" width="44" height="22" fill="none" stroke-width="1"></rect><path d="M2,24v-22h44v22z" fill="none" stroke-width="1"></path><path d="M2,24v-22h44v22z" fill="none" stroke-width="1"></path><path d="M2,24v-22h44v22z" fill="none" stroke-width="1"></path><path d="M2,24v-22h44v22z" fill="none" stroke-width="1"></path><g fill="#000000" stroke-width="1" font-family="Roboto, sans-serif" font-weight="400" font-size="14" text-anchor="start"></g><rect x="2" y="2" width="44" height="22" fill="none" stroke-width="1"></rect><path d="M2,24v-22h44v22z" fill="none" stroke-width="1"></path><path d="M2,24v-22h44v22z" fill="none" stroke-width="1"></path><path d="M2,24v-22h44v22z" fill="none" stroke-width="1"></path><path d="M2,24v-22h44v22z" fill="none" stroke-width="1"></path></g></svg>